<mxfile host="app.diagrams.net" modified="2022-02-09T06:02:02.951Z" agent="5.0 (Windows NT 10.0; Win64; x64) AppleWebKit/537.36 (KHTML, like Gecko) Chrome/97.0.4692.99 Safari/537.36" etag="8vWCO_10PmTH-9r7u8y1" version="16.5.2" type="github">
  <diagram id="Rfm9pupQd3TTHusyGie_" name="Page-1">
    <mxGraphModel dx="782" dy="468" grid="1" gridSize="10" guides="1" tooltips="1" connect="1" arrows="1" fold="1" page="1" pageScale="1" pageWidth="850" pageHeight="1100" math="0" shadow="0">
      <root>
        <mxCell id="0" />
        <mxCell id="1" parent="0" />
        <mxCell id="ZjMapaG8mnD5svFaJToD-7" value="" style="rounded=1;whiteSpace=wrap;html=1;" vertex="1" parent="1">
          <mxGeometry x="320" y="180" width="160" height="60" as="geometry" />
        </mxCell>
        <mxCell id="ZjMapaG8mnD5svFaJToD-8" value="&lt;b&gt;&lt;font style=&quot;font-size: 15px&quot;&gt;Identity Service&lt;/font&gt;&lt;/b&gt;" style="text;html=1;strokeColor=none;fillColor=none;align=center;verticalAlign=middle;whiteSpace=wrap;rounded=0;" vertex="1" parent="1">
          <mxGeometry x="350" y="195" width="90" height="30" as="geometry" />
        </mxCell>
        <mxCell id="ZjMapaG8mnD5svFaJToD-9" value="&lt;font style=&quot;font-size: 13px&quot;&gt;WebSub&lt;/font&gt;" style="rounded=0;whiteSpace=wrap;html=1;" vertex="1" parent="1">
          <mxGeometry x="60" y="190" width="100" height="60" as="geometry" />
        </mxCell>
        <mxCell id="ZjMapaG8mnD5svFaJToD-10" value="" style="rounded=0;whiteSpace=wrap;html=1;" vertex="1" parent="1">
          <mxGeometry x="370" y="30" width="90" height="50" as="geometry" />
        </mxCell>
        <mxCell id="ZjMapaG8mnD5svFaJToD-11" value="&lt;font style=&quot;font-size: 13px&quot;&gt;Partner management service&lt;/font&gt;" style="rounded=0;whiteSpace=wrap;html=1;" vertex="1" parent="1">
          <mxGeometry x="580" y="325" width="120" height="60" as="geometry" />
        </mxCell>
        <mxCell id="ZjMapaG8mnD5svFaJToD-12" value="&lt;font style=&quot;font-size: 14px&quot;&gt;VID Service&lt;/font&gt;" style="rounded=0;whiteSpace=wrap;html=1;" vertex="1" parent="1">
          <mxGeometry x="210" y="30" width="110" height="60" as="geometry" />
        </mxCell>
        <mxCell id="ZjMapaG8mnD5svFaJToD-13" value="&lt;font style=&quot;font-size: 13px&quot;&gt;Masterdata Service&lt;/font&gt;" style="rounded=0;whiteSpace=wrap;html=1;" vertex="1" parent="1">
          <mxGeometry x="120" y="280" width="120" height="60" as="geometry" />
        </mxCell>
        <mxCell id="ZjMapaG8mnD5svFaJToD-14" value="&lt;font style=&quot;font-size: 13px&quot;&gt;Auth Adapter&lt;/font&gt;" style="rounded=0;whiteSpace=wrap;html=1;" vertex="1" parent="1">
          <mxGeometry x="180" y="360" width="110" height="60" as="geometry" />
        </mxCell>
        <mxCell id="ZjMapaG8mnD5svFaJToD-15" value="Biometric SDK" style="rounded=0;whiteSpace=wrap;html=1;" vertex="1" parent="1">
          <mxGeometry x="330" y="360" width="95" height="60" as="geometry" />
        </mxCell>
        <mxCell id="ZjMapaG8mnD5svFaJToD-16" value="" style="rounded=0;whiteSpace=wrap;html=1;" vertex="1" parent="1">
          <mxGeometry x="456.71" y="360" width="88.42" height="60" as="geometry" />
        </mxCell>
        <mxCell id="ZjMapaG8mnD5svFaJToD-18" value="&lt;font style=&quot;font-size: 14px&quot;&gt;Key Manager&lt;/font&gt;" style="text;html=1;strokeColor=none;fillColor=none;align=center;verticalAlign=middle;whiteSpace=wrap;rounded=0;" vertex="1" parent="1">
          <mxGeometry x="380" y="40" width="60" height="25" as="geometry" />
        </mxCell>
        <mxCell id="ZjMapaG8mnD5svFaJToD-22" value="Object Store" style="text;html=1;strokeColor=none;fillColor=none;align=center;verticalAlign=middle;whiteSpace=wrap;rounded=0;" vertex="1" parent="1">
          <mxGeometry x="715" y="180" width="70" height="30" as="geometry" />
        </mxCell>
        <mxCell id="ZjMapaG8mnD5svFaJToD-23" value="" style="shape=cylinder3;whiteSpace=wrap;html=1;boundedLbl=1;backgroundOutline=1;size=15;" vertex="1" parent="1">
          <mxGeometry x="650" y="245" width="60" height="70" as="geometry" />
        </mxCell>
        <mxCell id="ZjMapaG8mnD5svFaJToD-24" value="DB" style="text;html=1;strokeColor=none;fillColor=none;align=center;verticalAlign=middle;whiteSpace=wrap;rounded=0;" vertex="1" parent="1">
          <mxGeometry x="650" y="270" width="60" height="40" as="geometry" />
        </mxCell>
        <mxCell id="ZjMapaG8mnD5svFaJToD-25" value="&lt;font style=&quot;font-size: 13px&quot;&gt;Audit Manager&lt;/font&gt;" style="text;html=1;strokeColor=none;fillColor=none;align=center;verticalAlign=middle;whiteSpace=wrap;rounded=0;" vertex="1" parent="1">
          <mxGeometry x="470.92" y="375" width="60" height="30" as="geometry" />
        </mxCell>
        <mxCell id="ZjMapaG8mnD5svFaJToD-31" value="" style="endArrow=classic;html=1;rounded=0;fontSize=15;entryX=0.5;entryY=0;entryDx=0;entryDy=0;" edge="1" parent="1" target="ZjMapaG8mnD5svFaJToD-7">
          <mxGeometry width="50" height="50" relative="1" as="geometry">
            <mxPoint x="400" y="80" as="sourcePoint" />
            <mxPoint x="430" y="250" as="targetPoint" />
          </mxGeometry>
        </mxCell>
        <mxCell id="ZjMapaG8mnD5svFaJToD-32" value="" style="endArrow=classic;html=1;rounded=0;fontSize=15;exitX=1;exitY=0.5;exitDx=0;exitDy=0;" edge="1" parent="1" source="ZjMapaG8mnD5svFaJToD-13">
          <mxGeometry width="50" height="50" relative="1" as="geometry">
            <mxPoint x="380" y="300" as="sourcePoint" />
            <mxPoint x="330" y="240" as="targetPoint" />
          </mxGeometry>
        </mxCell>
        <mxCell id="ZjMapaG8mnD5svFaJToD-33" value="" style="endArrow=classic;html=1;rounded=0;fontSize=15;entryX=0.75;entryY=1;entryDx=0;entryDy=0;exitX=0;exitY=0;exitDx=0;exitDy=0;" edge="1" parent="1" source="ZjMapaG8mnD5svFaJToD-11" target="ZjMapaG8mnD5svFaJToD-7">
          <mxGeometry width="50" height="50" relative="1" as="geometry">
            <mxPoint x="590" y="310" as="sourcePoint" />
            <mxPoint x="430" y="250" as="targetPoint" />
          </mxGeometry>
        </mxCell>
        <mxCell id="ZjMapaG8mnD5svFaJToD-34" value="" style="endArrow=classic;startArrow=classic;html=1;rounded=0;fontSize=15;exitX=1;exitY=0.5;exitDx=0;exitDy=0;" edge="1" parent="1" source="ZjMapaG8mnD5svFaJToD-9">
          <mxGeometry width="50" height="50" relative="1" as="geometry">
            <mxPoint x="380" y="300" as="sourcePoint" />
            <mxPoint x="320" y="220" as="targetPoint" />
          </mxGeometry>
        </mxCell>
        <mxCell id="ZjMapaG8mnD5svFaJToD-35" value="&lt;font style=&quot;font-size: 14px&quot;&gt;1&lt;/font&gt;" style="ellipse;whiteSpace=wrap;html=1;aspect=fixed;fontSize=15;" vertex="1" parent="1">
          <mxGeometry x="405" y="99.72" width="20.28" height="20.28" as="geometry" />
        </mxCell>
        <mxCell id="ZjMapaG8mnD5svFaJToD-36" value="&lt;font style=&quot;font-size: 14px&quot;&gt;2&lt;/font&gt;" style="ellipse;whiteSpace=wrap;html=1;aspect=fixed;fontSize=15;" vertex="1" parent="1">
          <mxGeometry x="480" y="115" width="20" height="20" as="geometry" />
        </mxCell>
        <mxCell id="ZjMapaG8mnD5svFaJToD-37" value="&lt;font style=&quot;font-size: 14px&quot;&gt;3&lt;/font&gt;" style="ellipse;whiteSpace=wrap;html=1;aspect=fixed;fontSize=15;" vertex="1" parent="1">
          <mxGeometry x="570" y="165" width="20" height="20" as="geometry" />
        </mxCell>
        <mxCell id="ZjMapaG8mnD5svFaJToD-39" value="&lt;font style=&quot;font-size: 14px&quot;&gt;4&lt;/font&gt;" style="ellipse;whiteSpace=wrap;html=1;aspect=fixed;fontSize=15;" vertex="1" parent="1">
          <mxGeometry x="615" y="255" width="20" height="20" as="geometry" />
        </mxCell>
        <mxCell id="ZjMapaG8mnD5svFaJToD-40" value="&lt;font style=&quot;font-size: 14px&quot;&gt;5&lt;/font&gt;" style="ellipse;whiteSpace=wrap;html=1;aspect=fixed;fontSize=15;" vertex="1" parent="1">
          <mxGeometry x="550" y="290" width="20" height="20" as="geometry" />
        </mxCell>
        <mxCell id="ZjMapaG8mnD5svFaJToD-41" value="&lt;font style=&quot;font-size: 14px&quot;&gt;6&lt;/font&gt;" style="ellipse;whiteSpace=wrap;html=1;aspect=fixed;fontSize=15;" vertex="1" parent="1">
          <mxGeometry x="480" y="315" width="20" height="20" as="geometry" />
        </mxCell>
        <mxCell id="ZjMapaG8mnD5svFaJToD-42" value="&lt;font style=&quot;font-size: 14px&quot;&gt;8&lt;/font&gt;" style="ellipse;whiteSpace=wrap;html=1;aspect=fixed;fontSize=15;" vertex="1" parent="1">
          <mxGeometry x="280" y="325" width="20" height="20" as="geometry" />
        </mxCell>
        <mxCell id="ZjMapaG8mnD5svFaJToD-43" value="&lt;font style=&quot;font-size: 14px&quot;&gt;7&lt;/font&gt;" style="ellipse;whiteSpace=wrap;html=1;aspect=fixed;fontSize=15;" vertex="1" parent="1">
          <mxGeometry x="385" y="335" width="20" height="20" as="geometry" />
        </mxCell>
        <mxCell id="ZjMapaG8mnD5svFaJToD-44" value="&lt;font style=&quot;font-size: 14px&quot;&gt;12&lt;/font&gt;" style="ellipse;whiteSpace=wrap;html=1;aspect=fixed;fontSize=15;" vertex="1" parent="1">
          <mxGeometry x="320" y="99.72" width="20" height="20" as="geometry" />
        </mxCell>
        <mxCell id="ZjMapaG8mnD5svFaJToD-45" value="&lt;font style=&quot;font-size: 14px&quot;&gt;9&lt;/font&gt;" style="ellipse;whiteSpace=wrap;html=1;aspect=fixed;fontSize=15;" vertex="1" parent="1">
          <mxGeometry x="250" y="260" width="20" height="20" as="geometry" />
        </mxCell>
        <mxCell id="ZjMapaG8mnD5svFaJToD-46" value="&lt;font style=&quot;font-size: 14px&quot;&gt;11&lt;/font&gt;" style="ellipse;whiteSpace=wrap;html=1;aspect=fixed;fontSize=15;" vertex="1" parent="1">
          <mxGeometry x="255" y="145" width="20" height="20" as="geometry" />
        </mxCell>
        <mxCell id="ZjMapaG8mnD5svFaJToD-47" value="&lt;font style=&quot;font-size: 14px&quot;&gt;10&lt;/font&gt;" style="ellipse;whiteSpace=wrap;html=1;aspect=fixed;fontSize=15;" vertex="1" parent="1">
          <mxGeometry x="180" y="190" width="20" height="20" as="geometry" />
        </mxCell>
        <mxCell id="ZjMapaG8mnD5svFaJToD-55" value="" style="endArrow=classic;html=1;rounded=0;fontSize=15;entryX=0;entryY=0;entryDx=20;entryDy=80;entryPerimeter=0;exitX=0.8;exitY=-0.028;exitDx=0;exitDy=0;exitPerimeter=0;" edge="1" parent="1" source="ZjMapaG8mnD5svFaJToD-7">
          <mxGeometry width="50" height="50" relative="1" as="geometry">
            <mxPoint x="380" y="200" as="sourcePoint" />
            <mxPoint x="530" y="119.72000000000003" as="targetPoint" />
          </mxGeometry>
        </mxCell>
        <mxCell id="ZjMapaG8mnD5svFaJToD-56" value="" style="endArrow=classic;startArrow=classic;html=1;rounded=0;fontSize=15;exitX=1;exitY=0.25;exitDx=0;exitDy=0;" edge="1" parent="1" source="ZjMapaG8mnD5svFaJToD-7" target="ZjMapaG8mnD5svFaJToD-65">
          <mxGeometry width="50" height="50" relative="1" as="geometry">
            <mxPoint x="380" y="200" as="sourcePoint" />
            <mxPoint x="638.5999999999999" y="170" as="targetPoint" />
            <Array as="points" />
          </mxGeometry>
        </mxCell>
        <mxCell id="ZjMapaG8mnD5svFaJToD-57" value="" style="endArrow=classic;html=1;rounded=0;fontSize=15;exitX=0;exitY=0.5;exitDx=0;exitDy=0;entryX=1;entryY=0.75;entryDx=0;entryDy=0;" edge="1" parent="1" source="ZjMapaG8mnD5svFaJToD-24" target="ZjMapaG8mnD5svFaJToD-7">
          <mxGeometry width="50" height="50" relative="1" as="geometry">
            <mxPoint x="380" y="300" as="sourcePoint" />
            <mxPoint x="490" y="240" as="targetPoint" />
            <Array as="points">
              <mxPoint x="490" y="230" />
            </Array>
          </mxGeometry>
        </mxCell>
        <mxCell id="ZjMapaG8mnD5svFaJToD-58" value="" style="endArrow=classic;html=1;rounded=0;fontSize=15;entryX=0.5;entryY=0;entryDx=0;entryDy=0;" edge="1" parent="1" target="ZjMapaG8mnD5svFaJToD-16">
          <mxGeometry width="50" height="50" relative="1" as="geometry">
            <mxPoint x="410" y="240" as="sourcePoint" />
            <mxPoint x="430" y="250" as="targetPoint" />
          </mxGeometry>
        </mxCell>
        <mxCell id="ZjMapaG8mnD5svFaJToD-59" value="" style="endArrow=classic;html=1;rounded=0;fontSize=15;entryX=0.379;entryY=1.011;entryDx=0;entryDy=0;entryPerimeter=0;exitX=0.5;exitY=0;exitDx=0;exitDy=0;" edge="1" parent="1" source="ZjMapaG8mnD5svFaJToD-15" target="ZjMapaG8mnD5svFaJToD-7">
          <mxGeometry width="50" height="50" relative="1" as="geometry">
            <mxPoint x="380" y="300" as="sourcePoint" />
            <mxPoint x="430" y="250" as="targetPoint" />
          </mxGeometry>
        </mxCell>
        <mxCell id="ZjMapaG8mnD5svFaJToD-60" value="" style="endArrow=classic;html=1;rounded=0;fontSize=15;exitX=0.57;exitY=-0.006;exitDx=0;exitDy=0;exitPerimeter=0;" edge="1" parent="1" source="ZjMapaG8mnD5svFaJToD-14">
          <mxGeometry width="50" height="50" relative="1" as="geometry">
            <mxPoint x="320" y="290" as="sourcePoint" />
            <mxPoint x="370" y="240" as="targetPoint" />
          </mxGeometry>
        </mxCell>
        <mxCell id="ZjMapaG8mnD5svFaJToD-61" value="" style="endArrow=classic;html=1;rounded=0;fontSize=15;entryX=0;entryY=0.5;entryDx=0;entryDy=0;" edge="1" parent="1" target="ZjMapaG8mnD5svFaJToD-7">
          <mxGeometry width="50" height="50" relative="1" as="geometry">
            <mxPoint x="200" y="140" as="sourcePoint" />
            <mxPoint x="250" y="90" as="targetPoint" />
          </mxGeometry>
        </mxCell>
        <mxCell id="ZjMapaG8mnD5svFaJToD-62" value="" style="endArrow=classic;html=1;rounded=0;fontSize=15;exitX=0.75;exitY=1;exitDx=0;exitDy=0;" edge="1" parent="1" source="ZjMapaG8mnD5svFaJToD-12" target="ZjMapaG8mnD5svFaJToD-7">
          <mxGeometry width="50" height="50" relative="1" as="geometry">
            <mxPoint x="380" y="300" as="sourcePoint" />
            <mxPoint x="430" y="250" as="targetPoint" />
          </mxGeometry>
        </mxCell>
        <mxCell id="ZjMapaG8mnD5svFaJToD-63" value="&lt;font style=&quot;font-size: 13px&quot;&gt;Credential request generator service&lt;/font&gt;" style="rounded=0;whiteSpace=wrap;html=1;fontSize=15;" vertex="1" parent="1">
          <mxGeometry x="530" y="69.72" width="120" height="60" as="geometry" />
        </mxCell>
        <mxCell id="ZjMapaG8mnD5svFaJToD-65" value="" style="sketch=0;outlineConnect=0;fontColor=#232F3E;gradientColor=none;fillColor=#3F8624;strokeColor=none;dashed=0;verticalLabelPosition=bottom;verticalAlign=top;align=center;html=1;fontSize=12;fontStyle=0;aspect=fixed;pointerEvents=1;shape=mxgraph.aws4.bucket_with_objects;" vertex="1" parent="1">
          <mxGeometry x="635" y="156" width="75" height="78" as="geometry" />
        </mxCell>
        <mxCell id="ZjMapaG8mnD5svFaJToD-68" value="Kernel ID generator" style="rounded=0;whiteSpace=wrap;html=1;fontSize=13;" vertex="1" parent="1">
          <mxGeometry x="80" y="105" width="120" height="60" as="geometry" />
        </mxCell>
      </root>
    </mxGraphModel>
  </diagram>
</mxfile>
